<svg xmlns="http://www.w3.org/2000/svg" viewBox="0 0 96 96" role="img" aria-label="Purple Parlor crowned onion mark">
  <defs><linearGradient id="a" x1="0" y1="0" x2="1" y2="1"><stop stop-color="#c783e6"/><stop offset="1" stop-color="#542467"/></linearGradient></defs>
  <rect x="3" y="3" width="90" height="90" rx="30" fill="#25102e" stroke="#e6b75b" stroke-width="3"/>
  <path d="M26 44c-2 22 8 39 22 44 15-5 25-22 22-44-2-16-12-22-22-34-10 12-20 18-22 34Z" fill="url(#a)" stroke="#e8c16d" stroke-width="2"/>
  <path d="M48 15c-6-2-8-7-8-12 6 1 9 5 10 9 2-4 5-8 10-9 0 5-2 10-8 12" fill="#74a46d"/>
  <path d="m27 15 6-11 14 9L56 3l9 10 13-7-4 18H29Z" fill="#e8b85d" stroke="#ffe2a0" stroke-width="1.5"/>
</svg>
