<svg xmlns="http://www.w3.org/2000/svg" aria-hidden="true">
  <symbol id="plinko" viewBox="0 0 64 64"><path d="M8 7h48L49 57H15Z" fill="none" stroke="currentColor" stroke-width="3"/><g fill="currentColor"><circle cx="32" cy="14" r="3"/><circle cx="24" cy="23" r="3"/><circle cx="40" cy="23" r="3"/><circle cx="17" cy="32" r="3"/><circle cx="32" cy="32" r="3"/><circle cx="47" cy="32" r="3"/><circle cx="24" cy="42" r="3"/><circle cx="40" cy="42" r="3"/></g></symbol>
  <symbol id="classic-slots" viewBox="0 0 64 64"><rect x="8" y="13" width="44" height="38" rx="7" fill="none" stroke="currentColor" stroke-width="3"/><path d="M16 22h28v19H16zM53 23h5v20h-5" fill="none" stroke="currentColor" stroke-width="3"/><text x="20" y="37" fill="currentColor" font-size="17" font-family="serif">7</text><text x="34" y="37" fill="currentColor" font-size="17" font-family="serif">7</text></symbol>
  <symbol id="video-slots" viewBox="0 0 64 64"><rect x="6" y="9" width="52" height="43" rx="6" fill="none" stroke="currentColor" stroke-width="3"/><path d="M23 10v42M41 10v42M7 30h50" stroke="currentColor" stroke-width="2"/><circle cx="15" cy="20" r="4" fill="currentColor"/><path d="m32 15 5 10H27Zm14 19 6 11H40Z" fill="currentColor"/><path d="m11 37 8 8m0-8-8 8" stroke="currentColor" stroke-width="3"/></symbol>
  <symbol id="blackjack" viewBox="0 0 64 64"><rect x="9" y="10" width="31" height="44" rx="4" fill="none" stroke="currentColor" stroke-width="3" transform="rotate(-8 24 32)"/><rect x="26" y="8" width="29" height="45" rx="4" fill="none" stroke="currentColor" stroke-width="3" transform="rotate(7 40 31)"/><text x="31" y="38" fill="currentColor" font-size="23" font-family="serif">A</text></symbol>
  <symbol id="european-roulette" viewBox="0 0 64 64"><circle cx="32" cy="32" r="26" fill="none" stroke="currentColor" stroke-width="3"/><circle cx="32" cy="32" r="10" fill="none" stroke="currentColor" stroke-width="3"/><path d="M32 6v16M32 42v16M6 32h16M42 32h16M14 14l11 11m14 14 11 11M50 14 39 25M25 39 14 50" stroke="currentColor" stroke-width="2"/><circle cx="45" cy="19" r="4" fill="currentColor"/></symbol>
  <symbol id="american-roulette" viewBox="0 0 64 64"><use href="#european-roulette"/><text x="27" y="37" fill="currentColor" font-size="14" font-family="sans-serif">00</text></symbol>
  <symbol id="baccarat" viewBox="0 0 64 64"><path d="M8 10h28v42H8zM29 12h27v40H29z" fill="none" stroke="currentColor" stroke-width="3"/><text x="14" y="39" fill="currentColor" font-size="22" font-family="serif">9</text><path d="m43 21 7 10-7 10-7-10Z" fill="currentColor"/></symbol>
  <symbol id="craps" viewBox="0 0 64 64"><rect x="7" y="10" width="28" height="28" rx="5" fill="none" stroke="currentColor" stroke-width="3"/><rect x="29" y="27" width="28" height="28" rx="5" fill="none" stroke="currentColor" stroke-width="3"/><g fill="currentColor"><circle cx="15" cy="18" r="3"/><circle cx="27" cy="30" r="3"/><circle cx="21" cy="24" r="3"/><circle cx="38" cy="36" r="3"/><circle cx="49" cy="47" r="3"/></g></symbol>
  <symbol id="video-poker" viewBox="0 0 64 64"><path d="M5 46 10 14l10 2m0 30 1-34 11 1m0 33V10h12l2 36m0-30 10-2 4 32" fill="none" stroke="currentColor" stroke-width="3"/><path d="m38 22 5 8-5 8-5-8Z" fill="currentColor"/></symbol>
  <symbol id="texas-holdem" viewBox="0 0 64 64"><ellipse cx="32" cy="32" rx="28" ry="19" fill="none" stroke="currentColor" stroke-width="3"/><rect x="22" y="21" width="9" height="14" rx="1" fill="none" stroke="currentColor" stroke-width="2"/><rect x="34" y="21" width="9" height="14" rx="1" fill="none" stroke="currentColor" stroke-width="2"/><circle cx="18" cy="40" r="5" fill="currentColor"/><circle cx="46" cy="40" r="5" fill="currentColor"/></symbol>
  <symbol id="three-card-poker" viewBox="0 0 64 64"><path d="m8 48 4-36 15 2m-7 34 3-39 17 2m-7 37 5-35 17 3-4 36" fill="none" stroke="currentColor" stroke-width="3"/></symbol>
  <symbol id="caribbean-stud" viewBox="0 0 64 64"><path d="M10 44c8-7 12-16 14-29 8 8 13 17 15 28M21 43h29" fill="none" stroke="currentColor" stroke-width="3"/><circle cx="42" cy="22" r="8" fill="none" stroke="currentColor" stroke-width="3"/><path d="M8 51h48" stroke="currentColor" stroke-width="4"/></symbol>
  <symbol id="casino-war" viewBox="0 0 64 64"><path d="M7 12h23v40H7zM34 12h23v40H34z" fill="none" stroke="currentColor" stroke-width="3"/><text x="12" y="39" fill="currentColor" font-size="23">K</text><text x="39" y="39" fill="currentColor" font-size="23">Q</text></symbol>
  <symbol id="red-dog" viewBox="0 0 64 64"><path d="M11 44c1-16 5-29 19-31 13-2 21 6 23 17-7-3-12-1-15 5-6 13-13 17-27 9Z" fill="none" stroke="currentColor" stroke-width="3"/><circle cx="40" cy="23" r="2.5" fill="currentColor"/><path d="m17 18 8-10 5 8M10 45l-3 9m37-16 7 12" stroke="currentColor" stroke-width="3"/></symbol>
  <symbol id="let-it-ride" viewBox="0 0 64 64"><path d="M10 43c12-24 32-24 44 0M15 42h34M32 10v33" fill="none" stroke="currentColor" stroke-width="3"/><path d="m25 20 7-10 7 10" fill="none" stroke="currentColor" stroke-width="3"/><circle cx="20" cy="48" r="6" fill="none" stroke="currentColor" stroke-width="3"/><circle cx="44" cy="48" r="6" fill="none" stroke="currentColor" stroke-width="3"/></symbol>
  <symbol id="pai-gow-poker" viewBox="0 0 64 64"><rect x="8" y="13" width="48" height="38" rx="7" fill="none" stroke="currentColor" stroke-width="3"/><circle cx="24" cy="32" r="10" fill="none" stroke="currentColor" stroke-width="3"/><circle cx="40" cy="32" r="10" fill="none" stroke="currentColor" stroke-width="3"/></symbol>
  <symbol id="hi-lo" viewBox="0 0 64 64"><path d="M18 29V8m0 0L9 18m9-10 9 10M46 35v21m0 0 9-10m-9 10L37 46" fill="none" stroke="currentColor" stroke-width="4"/><path d="M8 32h48" stroke="currentColor" stroke-width="2"/></symbol>
  <symbol id="five-card-draw" viewBox="0 0 64 64"><path d="m5 47 5-31 11 2m-8 29 6-36 12 2m-9 34 5-38 13 2m-8 36 7-34 12 3m-10 31 8-28 11 4-7 26" fill="none" stroke="currentColor" stroke-width="2.5"/></symbol>
  <symbol id="teen-patti" viewBox="0 0 64 64"><path d="M8 49V15h18v34m5 0V15h25v34" fill="none" stroke="currentColor" stroke-width="3"/><circle cx="17" cy="31" r="5" fill="currentColor"/><path d="m43 23 8 9-8 9-8-9Z" fill="currentColor"/></symbol>
  <symbol id="blackjack-switch" viewBox="0 0 64 64"><path d="M9 12h19v28H9zM36 12h19v28H36z" fill="none" stroke="currentColor" stroke-width="3"/><path d="M15 50h34m0 0-7-7m7 7-7 7" fill="none" stroke="currentColor" stroke-width="3"/></symbol>
  <symbol id="sic-bo" viewBox="0 0 64 64"><use href="#craps"/><rect x="22" y="6" width="20" height="20" rx="4" fill="#241331" stroke="currentColor" stroke-width="3"/><circle cx="32" cy="16" r="3" fill="currentColor"/></symbol>
  <symbol id="keno" viewBox="0 0 64 64"><rect x="7" y="7" width="50" height="50" rx="5" fill="none" stroke="currentColor" stroke-width="3"/><path d="M7 24h50M7 41h50M24 7v50M41 7v50" stroke="currentColor" stroke-width="2"/><circle cx="33" cy="33" r="7" fill="currentColor"/></symbol>
  <symbol id="bingo" viewBox="0 0 64 64"><path d="M9 14h46v40H9z" fill="none" stroke="currentColor" stroke-width="3"/><text x="13" y="28" fill="currentColor" font-size="11" font-family="sans-serif">BINGO</text><path d="M9 32h46M24 14v40M40 14v40" stroke="currentColor" stroke-width="2"/><circle cx="32" cy="43" r="6" fill="currentColor"/></symbol>
  <symbol id="mines" viewBox="0 0 64 64"><circle cx="32" cy="36" r="18" fill="none" stroke="currentColor" stroke-width="3"/><path d="M32 18V8h9m-5 3 9-7M32 26v20M22 36h20" stroke="currentColor" stroke-width="3"/><path d="m47 16 4-8 4 8 8 4-8 4-4 8-4-8-8-4Z" fill="currentColor"/></symbol>
  <symbol id="over-under-dice" viewBox="0 0 64 64"><path d="m10 24 12-12 12 12-12 12Zm20 17 12-12 12 12-12 12Z" fill="none" stroke="currentColor" stroke-width="3"/><path d="M8 49h18m-9-9v18M39 15h18" stroke="currentColor" stroke-width="3"/></symbol>
  <symbol id="coin-flip" viewBox="0 0 64 64"><ellipse cx="32" cy="32" rx="19" ry="27" fill="none" stroke="currentColor" stroke-width="3"/><ellipse cx="32" cy="32" rx="9" ry="27" fill="none" stroke="currentColor" stroke-width="3"/><path d="M13 32h38" stroke="currentColor" stroke-width="2"/></symbol>
  <symbol id="prize-wheel" viewBox="0 0 64 64"><use href="#european-roulette"/><path d="m32 3 7 12H25Z" fill="currentColor"/></symbol>
  <symbol id="number-draw" viewBox="0 0 64 64"><circle cx="24" cy="26" r="15" fill="none" stroke="currentColor" stroke-width="3"/><circle cx="41" cy="39" r="15" fill="none" stroke="currentColor" stroke-width="3"/><text x="18" y="32" fill="currentColor" font-size="17">8</text><text x="35" y="45" fill="currentColor" font-size="17">3</text></symbol>
  <symbol id="pachinko" viewBox="0 0 64 64"><rect x="10" y="5" width="44" height="54" rx="7" fill="none" stroke="currentColor" stroke-width="3"/><g fill="currentColor"><circle cx="32" cy="13" r="3"/><circle cx="23" cy="22" r="2"/><circle cx="41" cy="22" r="2"/><circle cx="17" cy="32" r="2"/><circle cx="32" cy="32" r="2"/><circle cx="47" cy="32" r="2"/><circle cx="24" cy="42" r="2"/><circle cx="40" cy="42" r="2"/></g><path d="M16 53h32" stroke="currentColor" stroke-width="3"/></symbol>
  <symbol id="horse-racing" viewBox="0 0 64 64"><path d="M8 42c10-3 14-12 19-23 8 3 14 8 20 14l9 1-5 8-12 2-7 12m0-17-13 17m17-27 6-10 7 5" fill="none" stroke="currentColor" stroke-width="3" stroke-linejoin="round"/><path d="M5 57h54" stroke="currentColor" stroke-width="3"/></symbol>
  <symbol id="scratch-cards" viewBox="0 0 64 64"><rect x="8" y="11" width="48" height="42" rx="5" fill="none" stroke="currentColor" stroke-width="3"/><path d="m16 22 32 20M16 42l32-20" stroke="currentColor" stroke-width="5" stroke-linecap="round"/><circle cx="49" cy="49" r="8" fill="currentColor"/></symbol>
  <symbol id="memory-match" viewBox="0 0 64 64"><rect x="8" y="8" width="21" height="21" rx="4" fill="none" stroke="currentColor" stroke-width="3"/><rect x="35" y="8" width="21" height="21" rx="4" fill="none" stroke="currentColor" stroke-width="3"/><rect x="8" y="35" width="21" height="21" rx="4" fill="none" stroke="currentColor" stroke-width="3"/><rect x="35" y="35" width="21" height="21" rx="4" fill="none" stroke="currentColor" stroke-width="3"/><path d="m15 18 7-5 7 5-7 6Zm27 27 7-5 7 5-7 6Z" fill="currentColor"/></symbol>
  <symbol id="klondike-solitaire" viewBox="0 0 64 64"><path d="M8 12h18v27H8zm30 2h18v27H38zM20 25h18v27H20z" fill="none" stroke="currentColor" stroke-width="3"/><path d="m29 35 5 6-5 6-5-6Z" fill="currentColor"/></symbol>
  <symbol id="pyramid-solitaire" viewBox="0 0 64 64"><path d="M28 7h9v11h-9zm-8 15h9v11h-9zm15 0h9v11h-9zM12 37h9v11h-9zm15 0h9v11h-9zm15 0h9v11h-9zM6 53h52" fill="none" stroke="currentColor" stroke-width="3"/></symbol>
  <symbol id="tripeaks-solitaire" viewBox="0 0 64 64"><path d="m5 36 12-22 10 18 8-18 12 21 6-13 7 14M7 45h50v12H7z" fill="none" stroke="currentColor" stroke-width="3"/></symbol>
  <symbol id="freecell" viewBox="0 0 64 64"><path d="M7 9h11v15H7zm13 0h11v15H20zm13 0h11v15H33zm13 0h11v15H46zM9 31h16v24H9zm20 0h16v24H29z" fill="none" stroke="currentColor" stroke-width="3"/><path d="m49 36 8 9-8 9-8-9Z" fill="currentColor"/></symbol>
  <symbol id="higher-lower" viewBox="0 0 64 64"><path d="M8 12h22v40H8zm26 0h22v40H34z" fill="none" stroke="currentColor" stroke-width="3"/><path d="m19 21 6 8H13Zm26 22 6-8H39Z" fill="currentColor"/></symbol>
  <symbol id="gem-drop" viewBox="0 0 64 64"><path d="m32 6 13 12-5 18-8 22-8-22-5-18Z" fill="none" stroke="currentColor" stroke-width="3"/><path d="m19 18 13 18 13-18M24 36h16M32 6v30" stroke="currentColor" stroke-width="2"/></symbol>
  <symbol id="lucky-cups" viewBox="0 0 64 64"><path d="m8 18 5 30h13l4-30Zm26 0 4 30h13l5-30Z" fill="none" stroke="currentColor" stroke-width="3"/><circle cx="32" cy="52" r="5" fill="currentColor"/></symbol>
  <symbol id="treasure-tiles" viewBox="0 0 64 64"><rect x="6" y="6" width="24" height="24" rx="4" fill="none" stroke="currentColor" stroke-width="3"/><rect x="34" y="6" width="24" height="24" rx="4" fill="none" stroke="currentColor" stroke-width="3"/><rect x="6" y="34" width="24" height="24" rx="4" fill="none" stroke="currentColor" stroke-width="3"/><rect x="34" y="34" width="24" height="24" rx="4" fill="none" stroke="currentColor" stroke-width="3"/><path d="m46 40 3 7 7 3-7 3-3 7-3-7-7-3 7-3Z" fill="currentColor"/></symbol>
</svg>
