<svg xmlns="http://www.w3.org/2000/svg" aria-hidden="true">
  <symbol id="royal-onion" viewBox="0 0 80 80"><path d="M18 39c-3 22 7 37 22 43 16-6 26-21 22-43-2-16-13-23-22-34-9 11-20 18-22 34Z" fill="#8e51b2" stroke="#ffe2a0" stroke-width="3"/><path d="M40 10c-6-2-9-7-8-12 5 1 9 5 10 9 2-4 6-8 11-9 0 5-3 10-9 12" fill="#78a36b"/><path d="m15 14 7-14 17 12L50 0l11 12 16-9-5 25H19Z" fill="#e8b85d" stroke="#fff0bd" stroke-width="2"/></symbol>
  <symbol id="velvet-crown" viewBox="0 0 80 80"><path d="m8 22 14 13 17-25 18 25 15-14-7 45H15Z" fill="#e8b85d" stroke="#fff0bd" stroke-width="3"/><path d="M16 55h49v14H16z" fill="#8e51b2" stroke="#ffe2a0" stroke-width="3"/><circle cx="22" cy="40" r="4" fill="#7e3a95"/><circle cx="40" cy="29" r="4" fill="#7e3a95"/><circle cx="58" cy="40" r="4" fill="#7e3a95"/></symbol>
  <symbol id="cozy-fire" viewBox="0 0 80 80"><path d="M40 74C19 74 12 59 18 43c4-11 13-17 14-32 9 8 12 16 10 25 8-4 12-11 12-20 13 11 16 25 9 40-4 11-12 18-23 18Z" fill="#e77145" stroke="#ffe2a0" stroke-width="3"/><path d="M39 66c-10 0-15-8-11-17 2-5 7-8 8-15 7 6 11 12 7 20 5-2 8-6 9-11 5 11-1 23-13 23Z" fill="#ffd369"/></symbol>
  <symbol id="moon-library" viewBox="0 0 80 80"><path d="M53 8c-20 2-30 19-25 36 4 15 19 23 34 18C46 76 20 69 12 47 3 23 23 1 53 8Z" fill="#d9b8ef" stroke="#ffe2a0" stroke-width="2"/><path d="M29 48h40v20H29z" fill="#6d347b" stroke="#ffe2a0" stroke-width="3"/><path d="M34 42h30v8H34zM42 48v20M55 48v20" fill="#8e51b2" stroke="#ffe2a0" stroke-width="2"/></symbol>
  <symbol id="parlor-gem" viewBox="0 0 80 80"><path d="m40 7 26 16-9 29-17 23-17-23-9-29Z" fill="#a86bcb" stroke="#ffe2a0" stroke-width="3"/><path d="m14 23 26 29 26-29M23 52h34M40 7v45M25 23h30" fill="none" stroke="#ead3f5" stroke-width="2"/></symbol>
  <symbol id="golden-teacup" viewBox="0 0 80 80"><path d="M14 25h43v24c0 14-9 22-21 22S14 63 14 49Z" fill="#e8b85d" stroke="#fff0bd" stroke-width="3"/><path d="M57 31h7c14 0 14 23-3 23h-5" fill="none" stroke="#ffe2a0" stroke-width="5"/><path d="M24 19c-6-6 5-8 0-15M39 19c-6-6 5-8 0-15" fill="none" stroke="#d9b8ef" stroke-width="3" stroke-linecap="round"/></symbol>
  <symbol id="purple-seven" viewBox="0 0 80 80"><path d="M13 10h58v14L43 72H22l34-48H13Z" fill="#8e51b2" stroke="#ffe2a0" stroke-width="4"/><path d="M18 18h43" stroke="#d9b8ef" stroke-width="3"/></symbol>
</svg>
